<?xml version="1.0" encoding="UTF-8"?>
<svg version="1.1" xmlns="http://www.w3.org/2000/svg" width="794" height="515">
<path d="M0 0 C22.77 0 45.54 0 69 0 C69 23.76 69 47.52 69 72 C89.13 72 109.26 72 130 72 C130 48.24 130 24.48 130 0 C152.77 0 175.54 0 199 0 C199 66.66 199 133.32 199 202 C176.23 202 153.46 202 130 202 C130 177.58 130 153.16 130 128 C109.87 128 89.74 128 69 128 C69 152.42 69 176.84 69 202 C46.23 202 23.46 202 0 202 C0 135.34 0 68.68 0 0 Z " fill="#FEFEFE" transform="translate(82,167)"/>
<path d="M0 0 C22.44 0 44.88 0 68 0 C76.04604535 17.24152576 76.04604535 17.24152576 79.0234375 24.0625 C79.53821907 25.23590439 79.53821907 25.23590439 80.06340027 26.43301392 C81.16903883 28.95457059 82.27209104 31.47724838 83.375 34 C84.16517012 35.80392324 84.95545572 37.60779589 85.74584961 39.41162109 C94.20916373 58.73448695 102.63180396 78.07511949 111.05212402 97.41674805 C119.46786245 116.74727263 127.89921501 136.07071548 136.375 155.375 C136.75322906 156.23680878 137.13145813 157.09861755 137.52114868 157.98654175 C141.19298069 166.35266471 144.86954547 174.7164991 148.578125 183.06640625 C149.10100098 184.24605957 149.62387695 185.42571289 150.16259766 186.64111328 C151.10697339 188.76982132 152.05435187 190.89720091 153.00537109 193.02294922 C153.40836426 193.93189941 153.81135742 194.84084961 154.2265625 195.77734375 C154.57283691 196.55327881 154.91911133 197.32921387 155.27587891 198.12866211 C156 200 156 200 156 202 C132.57 202 109.14 202 85 202 C81.92247373 195.07556589 79.01590121 188.17039006 76.25 181.125 C75.83878906 180.09375 75.42757812 179.0625 75.00390625 178 C74.61589844 177.01257813 74.22789062 176.02515625 73.828125 175.0078125 C73.4765332 174.11723145 73.12494141 173.22665039 72.76269531 172.30908203 C72 170 72 170 72 167 C46.92 167 21.84 167 -4 167 C-4.99 169.97 -5.98 172.94 -7 176 C-10.3 184.58 -13.6 193.16 -17 202 C-40.1 202 -63.2 202 -87 202 C-86.30848881 198.54244407 -85.82940792 196.27357398 -84.4597168 193.21508789 C-83.98486847 192.14426216 -83.98486847 192.14426216 -83.50042725 191.05180359 C-83.15352844 190.28318497 -82.80662964 189.51456635 -82.44921875 188.72265625 C-82.08354797 187.90098465 -81.7178772 187.07931305 -81.34112549 186.23274231 C-80.54596031 184.44707084 -79.74855793 182.66239432 -78.94918823 180.87860107 C-76.77308203 176.02150972 -74.61418276 171.15676947 -72.453125 166.29296875 C-72.00279404 165.28055115 -71.55246307 164.26813354 -71.08848572 163.22503662 C-66.30881596 152.46885228 -61.61925474 141.67407326 -56.9375 130.875 C-50.59544935 116.2562237 -44.22621109 101.64998335 -37.8125 87.0625 C-32.25580305 74.4212924 -26.70728458 61.77662078 -21.18612671 49.11984253 C-20.50417458 47.55665393 -19.82192798 45.99359373 -19.13931274 44.43069458 C-12.68543872 29.65171227 -6.35289261 14.82341609 0 0 Z M33 70 C30.43178817 76.51262829 27.86883051 83.02730587 25.30957031 89.54345703 C24.43774245 91.76138451 23.56469873 93.97883444 22.69042969 96.19580078 C21.43627473 99.3766904 20.18645734 102.55925409 18.9375 105.7421875 C18.54377197 106.73805878 18.15004395 107.73393005 17.74438477 108.75997925 C17.38401123 109.68078278 17.0236377 110.6015863 16.65234375 111.55029297 C16.17269165 112.76940872 16.17269165 112.76940872 15.68334961 114.01315308 C14.89158744 115.96503116 14.89158744 115.96503116 15 118 C27.21 118 39.42 118 52 118 C51.30950991 114.54754956 50.66186311 111.80846875 49.44946289 108.59277344 C49.13566177 107.7555072 48.82186066 106.91824097 48.49855042 106.05560303 C48.16000534 105.16584778 47.82146027 104.27609253 47.47265625 103.359375 C47.12367783 102.43658752 46.7746994 101.51380005 46.41514587 100.56304932 C45.67831309 98.61905269 44.93938032 96.67585089 44.19848633 94.73339844 C43.06239933 91.74973561 41.93815207 88.76178437 40.81445312 85.7734375 C40.09707168 83.88514392 39.37899677 81.99711362 38.66015625 80.109375 C38.32363541 79.21152283 37.98711456 78.31367065 37.64039612 77.38861084 C37.32344284 76.56395325 37.00648956 75.73929565 36.67993164 74.88964844 C36.40315079 74.16082458 36.12636993 73.43200073 35.84120178 72.68109131 C35.11345492 70.80683153 35.11345492 70.80683153 33 70 Z " fill="#FEFEFE" transform="translate(556,167)"/>
<path d="M0 0 C2.66800728 0.01600513 5.33448144 0.00011565 8.00244141 -0.01904297 C31.19509597 -0.0479919 52.95048186 4.22304276 70.59619141 20.46142578 C82.03160856 32.45526033 85.60655661 45.97427302 85.68603516 62.07861328 C85.71697266 63.61678711 85.71697266 63.61678711 85.74853516 65.18603516 C85.86544133 88.31884363 72.79345512 103.99383198 57.37826538 119.60917664 C42.60579112 134.51416907 42.60579112 134.51416907 35.06469727 140.97851562 C33.13394162 142.65312995 31.33360748 144.4256913 29.56103516 146.26611328 C26.65248537 149.28288817 26.65248537 149.28288817 24.43603516 150.39111328 C57.10603516 150.88611328 57.10603516 150.88611328 90.43603516 151.39111328 C90.43603516 167.89111328 90.43603516 184.39111328 90.43603516 201.39111328 C38.29603516 201.39111328 -13.84396484 201.39111328 -67.56396484 201.39111328 C-67.56396484 161.39111328 -67.56396484 161.39111328 -59.68896484 151.45361328 C-54.95458984 148.09033203 -54.95458984 148.09033203 -52.64013672 146.68164062 C-49.93724197 145.00154871 -47.72913656 142.96670345 -45.43896484 140.76611328 C-44.68099609 140.09064453 -43.92302734 139.41517578 -43.14208984 138.71923828 C-39.19544625 135.15529952 -35.31981495 131.51590747 -31.44238281 127.87695312 C-28.10958605 124.75297133 -24.75686654 121.653867 -21.37721252 118.58053589 C-15.0523421 112.81957325 -8.86253915 106.93738377 -2.78930664 100.91162109 C-1.7595424 99.89346398 -0.72530462 98.87981263 0.31323242 97.87060547 C13.04963869 85.51905115 13.04963869 85.51905115 19.43603516 69.39111328 C19.50202384 63.78207504 18.34358021 59.59172422 14.43603516 55.39111328 C7.12076633 51.20418836 -2.13896246 51.32864991 -10.19677734 52.90673828 C-16.52859184 54.98341056 -20.80505585 58.98812696 -25.27905273 63.76928711 C-26.70458984 65.22314453 -26.70458984 65.22314453 -29.56396484 67.39111328 C-34.21233851 67.08184896 -37.87202039 65.51876243 -42.03662109 63.51220703 C-42.64098495 63.22185074 -43.24534882 62.93149445 -43.86802673 62.63233948 C-45.14471146 62.01654182 -46.41955522 61.39691435 -47.69262695 60.77368164 C-49.59193187 59.84548958 -51.49811965 58.93288226 -53.40576172 58.02197266 C-61.6957499 54.02463243 -70.13819963 49.86608638 -77.56396484 44.39111328 C-78.05896484 42.90611328 -78.05896484 42.90611328 -78.56396484 41.39111328 C-77.33280033 39.18527686 -76.10794215 37.36919435 -74.56396484 35.39111328 C-74.08830078 34.78009766 -73.61263672 34.16908203 -73.12255859 33.53955078 C-68.26882046 27.66828201 -62.58622487 23.02104021 -56.56396484 18.39111328 C-55.78279297 17.78267578 -55.00162109 17.17423828 -54.19677734 16.54736328 C-49.30398437 12.92307219 -44.14453682 9.94288465 -38.75146484 7.14111328 C-38.13634033 6.81167725 -37.52121582 6.48224121 -36.88745117 6.14282227 C-25.14396145 0.25828821 -12.84709244 -0.09138001 0 0 Z " fill="#FEFEFE" transform="translate(368.56396484375,167.60888671875)"/>
<path d="M0 0 C1.98 0 3.96 0 6 0 C7.65362053 3.73862033 9.00424757 7.01699027 10 11 C11.32 7.37 12.64 3.74 14 0 C15.98 0 17.96 0 20 0 C21.32 3.3 22.64 6.6 24 10 C25.32 6.7 26.64 3.4 28 0 C29.65 0 31.3 0 33 0 C31.55613874 7.21930632 29.42211826 14.05110733 27 21 C25.02 21 23.04 21 21 21 C19.68 17.7 18.36 14.4 17 11 C15.68 14.3 14.36 17.6 13 21 C11.02 21 9.04 21 7 21 C3.79371981 14.26681161 1.95977591 7.17258088 0 0 Z " fill="#FEFEFE" transform="translate(203,391)"/>
<path d="M0 0 C5 0 5 0 7.01953125 1.96875 C7.61121094 2.8040625 8.20289063 3.639375 8.8125 4.5 C9.41707031 5.3353125 10.02164063 6.170625 10.64453125 7.03125 C11.09183594 7.6809375 11.53914062 8.330625 12 9 C12.33 6.03 12.66 3.06 13 0 C14.98 0 16.96 0 19 0 C19 6.93 19 13.86 19 21 C14 21 14 21 11.76171875 19.03125 C10.73498047 17.77828125 10.73498047 17.77828125 9.6875 16.5 C8.99011719 15.6646875 8.29273438 14.829375 7.57421875 13.96875 C6.79498047 12.99421875 6.79498047 12.99421875 6 12 C5.67 14.97 5.34 17.94 5 21 C3.35 21 1.7 21 0 21 C0 14.07 0 7.14 0 0 Z " fill="#FEFEFE" transform="translate(693,391)"/>
<path d="M0 0 C13.31963435 -0.49331979 13.31963435 -0.49331979 16.4296875 1.76171875 C18.97055408 5.38340171 18.41468573 7.64579987 18 12 C17.01 13.485 17.01 13.485 16 15 C16.495 15.61875 16.99 16.2375 17.5 16.875 C19 19 19 19 19 21 C16.25 21.3125 16.25 21.3125 13 21 C10.8125 18.5625 10.8125 18.5625 9 16 C8.01 15.67 7.02 15.34 6 15 C6 16.98 6 18.96 6 21 C4.02 21 2.04 21 0 21 C0 14.07 0 7.14 0 0 Z M6 5 C6 6.98 6 8.96 6 11 C7.98 10.67 9.96 10.34 12 10 C12.33 9.01 12.66 8.02 13 7 C12.67 6.34 12.34 5.68 12 5 C10.02 5 8.04 5 6 5 Z " fill="#FEFEFE" transform="translate(276,391)"/>
<path d="M0 0 C2.93835112 1.30788882 3.85011181 2.4091091 6 5 C7.27298235 9.11847231 7.29220314 11.20028616 5.8125 15.25 C2.94086957 19.60695652 2.94086957 19.60695652 0 21 C-4.36644148 21.58983825 -7.89144714 21.49531085 -11.9375 19.6875 C-14.35231356 17.71174345 -15.82964521 16.0577844 -16.3359375 12.9140625 C-16.40639369 8.78532948 -16.3674057 6.58784911 -14.125 3 C-9.96130585 -0.91877096 -5.48929282 -0.73134529 0 0 Z M-10 7.1875 C-11.29005448 9.9676527 -11.29005448 9.9676527 -10.25 12.75 C-9.18887078 14.90270293 -9.18887078 14.90270293 -8 16 C-5.0842309 16.41702122 -5.0842309 16.41702122 -2 16 C0.0785608 14.42304368 0.0785608 14.42304368 1 12 C0.75925978 8.62963689 0.41201979 7.41201979 -2 5 C-5.84863632 4.42679885 -7.31118475 4.24660832 -10 7.1875 Z " fill="#FEFEFE" transform="translate(675,391)"/>
<path d="M0 0 C14.19642857 -0.66964286 14.19642857 -0.66964286 17.8125 2 C20.50814241 5.69688102 21.39730318 8.44487282 21 13 C19.29335753 17.26660618 17.0693992 19.00774893 13 21 C8.62713126 21.38448436 4.40061175 21.13335187 0 21 C0 14.07 0 7.14 0 0 Z M5 5 C5 8.63 5 12.26 5 16 C9.6800086 16.39909856 9.6800086 16.39909856 13.9375 14.8125 C15.38718434 12.33950907 15.42317323 10.82115488 15 8 C14.04451019 6.04374022 14.04451019 6.04374022 12 5 C8.37464024 4.7496423 8.37464024 4.7496423 5 5 Z " fill="#FEFEFE" transform="translate(174,391)"/>
<path d="M0 0 C2.0625 -0.04125 4.125 -0.0825 6.25 -0.125 C7.99023438 -0.15980469 7.99023438 -0.15980469 9.765625 -0.1953125 C12.84681133 -0.00925052 14.4785909 0.28304047 17 2 C18.5635348 5.12706959 18.39958487 8.57982443 18 12 C17.01 13.485 17.01 13.485 16 15 C16.99 16.98 17.98 18.96 19 21 C16.25 21.3125 16.25 21.3125 13 21 C10.8125 18.5625 10.8125 18.5625 9 16 C8.01 15.67 7.02 15.34 6 15 C6 16.98 6 18.96 6 21 C4.02 21 2.04 21 0 21 C0 14.07 0 7.14 0 0 Z M6 5 C6 6.98 6 8.96 6 11 C7.98 10.67 9.96 10.34 12 10 C12.33 9.01 12.66 8.02 13 7 C12.67 6.34 12.34 5.68 12 5 C10.02 5 8.04 5 6 5 Z " fill="#FEFEFE" transform="translate(144,391)"/>
<path d="M0 0 C3.78655451 1.97216381 4.74290709 3.43225316 6.5 7.3125 C7.12063564 11.88968787 6.29065944 14.02952363 4 18 C2.09414954 20.27236017 0.84140357 20.8879181 -2.08203125 21.27734375 C-6.86157656 21.47550069 -10.17270728 21.13142132 -14 18 C-16.6790573 13.98141405 -16.69610694 10.72358279 -16 6 C-11.86816305 -0.61093912 -7.34038656 -0.80917647 0 0 Z M-9.9375 6.6875 C-11.28233625 9.61449654 -11.03115662 10.98584989 -10 14 C-8.11861241 16.28930236 -8.11861241 16.28930236 -5.0625 16.375 C-1.96272019 16.28568869 -1.96272019 16.28568869 -0.0625 14.3125 C1.28233625 11.38550346 1.03115662 10.01415011 0 7 C-1.88138759 4.71069764 -1.88138759 4.71069764 -4.9375 4.625 C-8.03727981 4.71431131 -8.03727981 4.71431131 -9.9375 6.6875 Z " fill="#FEFEFE" transform="translate(391,391)"/>
<path d="M0 0 C1.98 0 3.96 0 6 0 C6 2.64 6 5.28 6 8 C8.64 8 11.28 8 14 8 C14 5.36 14 2.72 14 0 C15.65 0 17.3 0 19 0 C19 6.93 19 13.86 19 21 C17.35 21 15.7 21 14 21 C14 18.36 14 15.72 14 13 C11.36 13 8.72 13 6 13 C6 15.64 6 18.28 6 21 C4.02 21 2.04 21 0 21 C0 14.07 0 7.14 0 0 Z " fill="#FEFEFE" transform="translate(82,391)"/>
<path d="M0 0 C5.28 0 10.56 0 16 0 C16 1.65 16 3.3 16 5 C12.37 5 8.74 5 5 5 C5 5.99 5 6.98 5 8 C8.3 8 11.6 8 15 8 C14.67 9.65 14.34 11.3 14 13 C11.03 13 8.06 13 5 13 C5 13.99 5 14.98 5 16 C8.63 16 12.26 16 16 16 C16 17.65 16 19.3 16 21 C10.72 21 5.44 21 0 21 C0 14.07 0 7.14 0 0 Z " fill="#FEFEFE" transform="translate(306,391)"/>
<path d="M0 0 C1.98 0 3.96 0 6 0 C7.13277268 2.18376766 8.25622789 4.37157128 9.375 6.5625 C9.69210937 7.17158203 10.00921875 7.78066406 10.3359375 8.40820312 C12.43311374 12.53701886 13.85603936 16.51082113 15 21 C13.02 21 11.04 21 9 21 C8.67 19.68 8.34 18.36 8 17 C6.54054712 17.08708669 5.08234132 17.19526907 3.625 17.3125 C2.81289063 17.37050781 2.00078125 17.42851562 1.1640625 17.48828125 C-1.37921338 17.82990528 -1.37921338 17.82990528 -3 21 C-5.625 21.1875 -5.625 21.1875 -8 21 C-7.32512263 16.18080529 -5.42034091 12.08116134 -3.4375 7.6875 C-2.9434668 6.57665039 -2.9434668 6.57665039 -2.43945312 5.44335938 C-1.63082877 3.62688438 -0.81602884 1.81316069 0 0 Z M3 7 C2.34 8.65 1.68 10.3 1 12 C2.32 12 3.64 12 5 12 C4.67 10.35 4.34 8.7 4 7 C3.67 7 3.34 7 3 7 Z " fill="#FEFEFE" transform="translate(431,391)"/>
<path d="M0 0 C1.98 0 3.96 0 6 0 C7.34242421 2.93342898 8.67234067 5.87236252 10 8.8125 C10.3815625 9.64587891 10.763125 10.47925781 11.15625 11.33789062 C11.5171875 12.14033203 11.878125 12.94277344 12.25 13.76953125 C12.58515625 14.50792236 12.9203125 15.24631348 13.265625 16.00708008 C14 18 14 18 14 21 C12.02 21 10.04 21 8 21 C7.67 19.68 7.34 18.36 7 17 C4.03 17 1.06 17 -2 17 C-2.33 18.32 -2.66 19.64 -3 21 C-4.98 21 -6.96 21 -9 21 C-6.76686274 13.55620912 -3.59727921 6.88023305 0 0 Z M2 7 C1.34 8.65 0.68 10.3 0 12 C1.65 12 3.3 12 5 12 C4.34 10.35 3.68 8.7 3 7 C2.67 7 2.34 7 2 7 Z " fill="#FEFEFE" transform="translate(593,391)"/>
<path d="M0 0 C1.98 0 3.96 0 6 0 C7.34242421 2.93342898 8.67234067 5.87236252 10 8.8125 C10.3815625 9.64587891 10.763125 10.47925781 11.15625 11.33789062 C11.5171875 12.14033203 11.878125 12.94277344 12.25 13.76953125 C12.58515625 14.50792236 12.9203125 15.24631348 13.265625 16.00708008 C14 18 14 18 14 21 C11.625 21.1875 11.625 21.1875 9 21 C8.34 20.01 7.68 19.02 7 18 C4.80545319 17.42006301 4.80545319 17.42006301 2.375 17.3125 C1.55773437 17.24675781 0.74046875 17.18101562 -0.1015625 17.11328125 C-0.72804687 17.07589844 -1.35453125 17.03851563 -2 17 C-2.33 18.32 -2.66 19.64 -3 21 C-4.98 21 -6.96 21 -9 21 C-6.76686274 13.55620912 -3.59727921 6.88023305 0 0 Z M2 7 C1.67 8.65 1.34 10.3 1 12 C2.32 11.67 3.64 11.34 5 11 C4.34 9.68 3.68 8.36 3 7 C2.67 7 2.34 7 2 7 Z " fill="#FEFEFE" transform="translate(252,391)"/>
<path d="M0 0 C1.98 0 3.96 0 6 0 C7.34242421 2.93342898 8.67234067 5.87236252 10 8.8125 C10.3815625 9.64587891 10.763125 10.47925781 11.15625 11.33789062 C11.5171875 12.14033203 11.878125 12.94277344 12.25 13.76953125 C12.58515625 14.50792236 12.9203125 15.24631348 13.265625 16.00708008 C14 18 14 18 14 21 C12.02 21 10.04 21 8 21 C7.67 20.01 7.34 19.02 7 18 C4.03 17.67 1.06 17.34 -2 17 C-2.33 18.32 -2.66 19.64 -3 21 C-4.98 21 -6.96 21 -9 21 C-6.76686274 13.55620912 -3.59727921 6.88023305 0 0 Z M2 7 C1.67 8.65 1.34 10.3 1 12 C2.32 11.67 3.64 11.34 5 11 C4.34 9.68 3.68 8.36 3 7 C2.67 7 2.34 7 2 7 Z " fill="#FEFEFE" transform="translate(120,391)"/>
<path d="M0 0 C12.20659794 -0.49319588 12.20659794 -0.49319588 15.890625 1.796875 C18 4 18 4 18.5625 7.5 C18 11 18 11 16.5625 13.4375 C12.78993176 15.73784649 9.30933841 15.33148757 5 15 C5 16.98 5 18.96 5 21 C3.35 21 1.7 21 0 21 C0 14.07 0 7.14 0 0 Z M5 5 C5 6.98 5 8.96 5 11 C8.465 10.505 8.465 10.505 12 10 C11.67 8.35 11.34 6.7 11 5 C9.02 5 7.04 5 5 5 Z " fill="#FEFEFE" transform="translate(485,391)"/>
<path d="M0 0 C12.05122556 -0.60864776 12.05122556 -0.60864776 16.3125 2.125 C18.30106368 5.5129233 18.73865679 7.14257011 18 11 C16.5625 13.375 16.5625 13.375 14 15 C10.96953066 15.32338916 8.03471946 15.23343996 5 15 C5 16.98 5 18.96 5 21 C3.35 21 1.7 21 0 21 C0 14.07 0 7.14 0 0 Z M5 5 C5 6.98 5 8.96 5 11 C6.98 10.67 8.96 10.34 11 10 C11.59070014 8.05396726 11.59070014 8.05396726 12 6 C10.87465895 4.64381501 10.87465895 4.64381501 7.9375 4.9375 C6.968125 4.958125 5.99875 4.97875 5 5 Z " fill="#FEFEFE" transform="translate(456,391)"/>
<path d="M0 0 C0.99 0.66 1.98 1.32 3 2 C2.67 3.32 2.34 4.64 2 6 C-0.37536547 6 -2.75153255 5.9699387 -5.125 5.875 C-8.13181749 5.68133441 -8.13181749 5.68133441 -10 8 C-10.33333333 10.5 -10.33333333 10.5 -10 13 C-8.13181749 15.31866559 -8.13181749 15.31866559 -5.125 15.125 C-3.578125 15.063125 -3.578125 15.063125 -2 15 C-0.68 15 0.64 15 2 15 C2.33 16.32 2.66 17.64 3 19 C-1.33217284 21.44052271 -5.11340361 21.81161463 -10 21 C-12.86700051 19.66761802 -13.8545225 18.52093606 -16 16 C-17.04002166 12.35992419 -17.23030472 9.99031032 -16.375 6.3125 C-12.41700418 -0.34412933 -7.25155651 -1.05700654 0 0 Z " fill="#FEFEFE" transform="translate(573,391)"/>
<path d="M0 0 C5.94 0 11.88 0 18 0 C18 1.65 18 3.3 18 5 C16.02 5 14.04 5 12 5 C12 10.28 12 15.56 12 21 C10.02 21 8.04 21 6 21 C6 15.72 6 10.44 6 5 C4.02 5 2.04 5 0 5 C0 3.35 0 1.7 0 0 Z " fill="#FEFEFE" transform="translate(614,391)"/>
<path d="M0 0 C5.94 0 11.88 0 18 0 C18 1.65 18 3.3 18 5 C16.02 5 14.04 5 12 5 C12 10.28 12 15.56 12 21 C10.02 21 8.04 21 6 21 C6 15.72 6 10.44 6 5 C4.02 5 2.04 5 0 5 C0 3.35 0 1.7 0 0 Z " fill="#FEFEFE" transform="translate(348,391)"/>
<path d="M0 0 C1.98 0 3.96 0 6 0 C6 5.28 6 10.56 6 16 C9.3 16 12.6 16 16 16 C16 17.65 16 19.3 16 21 C10.72 21 5.44 21 0 21 C0 14.07 0 7.14 0 0 Z " fill="#FEFEFE" transform="translate(514,391)"/>
<path d="M0 0 C1.98 0 3.96 0 6 0 C6 6.93 6 13.86 6 21 C4.02 21 2.04 21 0 21 C0 14.07 0 7.14 0 0 Z " fill="#FEFEFE" transform="translate(642,391)"/>
<path d="M0 0 C1.65 0 3.3 0 5 0 C5 6.93 5 13.86 5 21 C3.35 21 1.7 21 0 21 C0 14.07 0 7.14 0 0 Z " fill="#FEFEFE" transform="translate(540,391)"/>
</svg>
